<svg width="457" height="419" viewBox="0 0 457 419" fill="none" xmlns="http://www.w3.org/2000/svg">
<path d="M238.859 345.543C252.2 363.923 255.578 384.023 251.383 406.152C249.812 405.184 250.082 404.104 250.068 403.202C249.465 369.391 232.605 347.161 203.961 333.551C187.15 325.563 169.341 321.869 151.214 319.532C132.859 317.164 114.474 316.984 96.1219 317.382C73.4253 317.874 50.8597 320.199 28.3882 323.231C21.5816 324.149 14.7695 325.043 7.98756 326.108C5.41635 326.512 4.28959 325.661 4.44272 322.936C5.25414 308.499 4.50245 293.996 5.10191 279.555C5.73444 264.342 5.19431 249.098 5.41994 233.876C5.84498 205.334 6.1411 176.787 6.4442 148.241C6.51173 142.064 6.39337 135.879 6.35455 128.955C22.01 132.073 36.0838 137.172 50.0472 141.517C51.5644 140.276 51.1796 138.904 51.192 137.699C51.3648 122.346 51.5156 106.995 51.6494 91.6418C51.692 86.6438 51.7645 86.557 56.2932 87.7948C68.401 91.1022 80.493 94.4542 92.345 98.7514C93.2406 99.0776 94.1902 99.2257 95.0447 99.4402C96.5366 98.1563 96.0105 96.5031 96.0228 95.0711C96.2065 71.2148 96.3482 47.3578 96.494 23.4998C96.5263 18.2196 96.6225 18.1533 101.676 19.451C142.428 29.9101 181.242 45.6571 217.275 68.8102C249.752 89.6768 278.015 115.381 298.922 149.236C313.488 172.823 322.503 198.435 325.903 226.198C328.794 249.825 327.142 273.007 322.529 296.012C322.388 296.715 322.49 297.581 321.296 297.93C320.401 295.608 321.256 293.306 321.449 291.125C325.168 249 318.37 208.897 297.904 171.554C282.284 143.057 260.738 120.196 235.33 101.2C201.293 75.7527 163.612 58.7577 123.899 46.5189C123.667 46.4459 123.423 46.4158 123.188 46.3438C114.265 43.6505 114.305 43.6511 114.261 53.1658C114.135 80.8316 114.257 108.51 113.733 136.161C113.337 157.098 113.822 178.049 113.465 198.978C113.404 202.553 114.237 204.028 117.986 204.538C147.52 208.564 176.564 214.938 204.014 228.067C225.086 238.144 243.811 251.547 257.268 271.921C270.244 291.563 275.349 313.262 273.513 336.742C273.065 342.436 272.279 348.036 271.091 353.574C270.681 355.477 270.384 357.476 268.459 359.009C268.618 354.989 268.775 350.966 268.941 346.946C270.231 315.591 260.927 288.608 237.535 267.592C220.059 251.889 199.349 243.04 177.733 236.362C154.707 229.245 131.164 225.12 107.451 222.115C104.807 221.779 102.168 221.284 99.5183 221.117C96.3672 220.92 95.1671 219.557 95.2078 216.087C95.4738 193.756 95.5338 171.418 95.7037 149.084C95.7651 140.965 95.8326 132.843 96.1318 124.737C96.2489 121.601 95.0759 120.111 92.3148 119.267C84.8902 116.994 77.5083 114.56 68.9843 111.83C69.0236 119.026 69.1008 125.335 69.0821 131.641C68.9736 168.956 68.8412 206.27 68.7207 243.583C68.7045 249.271 68.7195 249.273 74.0373 249.562C100.381 250.999 126.665 253.363 152.58 259.199C178.343 264.998 203.403 273.075 225.521 289.236C241.751 301.095 253.899 316.201 259.777 336.271C263.936 350.469 264.173 364.795 261.917 379.198C261.822 379.807 261.686 380.463 260.828 380.496C259.761 379.847 260.157 378.73 260.154 377.81C260.022 341.609 243.222 315.971 213.486 298.595C194.92 287.748 174.824 281.889 154.221 277.84C122.579 271.622 90.6782 270.689 58.7397 270.744C57.0454 270.747 55.3465 270.665 53.6589 270.745C51.3788 270.854 50.3696 269.91 50.3861 267.4C50.4905 251.538 50.25 235.671 50.6644 219.811C51.0347 205.614 50.8075 191.383 50.8921 177.168C50.9143 173.492 51.0665 169.816 51.2556 166.148C51.3774 163.795 50.6433 162.38 48.3 161.669C41.5298 159.615 34.7833 157.46 28.0802 155.161C25.2303 154.185 24.2521 155.255 24.2506 158.062C24.2489 159.458 24.2173 160.853 24.2067 162.25C23.9991 185.978 23.8335 209.708 23.578 233.434C23.3441 254.999 23.0041 276.561 22.7472 298.124C22.7281 299.606 22.4068 301.157 23.3653 302.967C29.8067 302.351 36.368 301.736 42.9258 301.095C70.7098 298.38 98.5501 297.53 126.526 299.582C145.776 300.994 164.782 303.955 183.359 309.8C200.651 315.241 216.846 323.035 230.487 336.017C233.491 338.875 236.121 342.066 238.859 345.543Z" fill="#E1E1E6"/>
<path d="M234.62 59.6705C263.97 69.8506 290.06 86.0334 315.194 104.23C329.37 114.493 342.725 125.994 357.45 135.421C364.028 139.632 370.747 143.602 378.173 145.825C395.365 150.976 410.168 146.227 422.972 134.211C435.561 122.4 442.376 107.045 446.329 90.0254C446.606 88.8309 446.516 87.4912 447.736 86.4247C448.814 87.9851 448.869 89.7023 448.996 91.4087C450.26 108.455 449.203 125.337 447.27 142.21C443.029 179.242 432.961 214.302 417.159 247.404C398.263 286.997 372.178 320.508 339.612 348.495C316.985 367.939 292.14 383.658 265.608 396.597C264.786 396.997 264.025 397.82 262.765 397.159C262.807 395.54 264.195 395.097 265.136 394.34C288.461 375.551 307.336 352.817 320.253 324.896C329.027 305.932 334.042 285.825 335.697 264.617C339.062 221.576 327.375 182.409 305.845 145.858C284.094 108.923 254.509 80.22 219.654 57.2479C218.687 56.6104 217.303 56.387 216.917 54.2971C223.006 55.6534 228.666 57.6524 234.62 59.6705ZM343.9 253.842C344.104 257.008 344.425 260.175 344.49 263.341C344.612 269.176 345.389 274.667 349.477 279.289C351.191 281.227 342.663 311.01 343.429 313.609C344.087 315.846 322.926 131.168 325.105 130.848C331.748 129.874 430.376 165.273 434.111 158.619C435.733 155.727 423.276 209.507 425.786 207.574C428.232 205.692 407.533 245.22 409.231 242.528C412.193 237.839 392.968 257.492 396.119 252.955C401.569 245.097 406.567 236.82 409.189 227.19C411.195 219.818 412.496 212.23 415.438 205.13C417.989 198.969 419.246 192.205 419.26 185.535C419.285 171.998 417.043 167.308 403.934 167.093C399.424 167.02 395.082 166.343 390.677 165.195C383.506 163.327 376.299 161.767 368.894 160.91C361.212 160.02 353.727 161.318 346.134 160.925C339.568 160.588 337.818 162.606 337.564 169.547C337.407 173.788 336.839 177.802 334.318 181.323C332.688 183.602 332.293 186.365 332.795 189.285C333.379 192.672 334.193 195.999 334.932 199.35C336.718 207.468 339.992 215.391 338.56 223.998C338.185 226.247 338.805 228.536 339.523 230.74C341.899 238.027 343.485 245.468 343.9 253.842Z" fill="#E1E1E6"/>
<path d="M151.812 139.309C154.237 140.919 156.644 141.459 159.278 141.425C162.181 141.389 164.172 140.148 164.986 137.732C165.83 135.233 165.331 132.747 162.761 131.149C160.533 129.762 158.068 128.693 155.685 127.527C152.295 125.869 148.783 124.401 145.5 122.581C137.063 117.896 133.284 110.953 134.482 102.191C135.676 93.4701 141.189 87.8376 150.363 85.2454C157.264 83.2919 157.43 83.2967 157.698 76.4023C157.821 73.2779 159.1 72.4295 162.359 72.7867C171.555 73.7934 171.719 73.7382 170.661 82.0335C170.311 84.7709 171.347 85.9716 173.875 87.0916C180.687 90.1123 184.06 95.5491 186.043 101.929C186.696 104.028 186.071 105.126 183.778 105.511C180.331 106.085 176.887 106.682 173.452 107.31C171.273 107.709 170.424 106.671 169.881 104.912C168.857 101.603 166.761 98.9669 163.005 98.0022C160.166 97.2751 157.163 97.2112 155.727 100.149C154.417 102.834 154.849 105.472 157.483 107.536C159.558 109.161 161.995 110.261 164.439 111.341C167.774 112.813 171.068 114.365 174.38 115.885C182.508 119.622 186.531 125.887 186.392 133.829C186.241 142.435 182.034 149.779 173.039 152.514C166.106 154.623 162.847 157.657 163.302 164.192C163.327 164.567 163.339 165.087 163.1 165.308C159.891 168.256 156.233 165.187 152.792 165.628C150.865 165.876 149.713 164.414 150.212 162.869C152.536 155.684 148.026 153.265 141.57 150.825C133.887 147.924 131.057 141.292 129.766 134.211C129.392 132.146 130.276 131.042 132.649 130.945C136.303 130.793 139.955 130.578 143.6 130.322C145.935 130.161 147.362 130.879 147.774 133.165C148.207 135.537 149.521 137.54 151.812 139.309Z" fill="#E1E1E6"/>
<path d="M385.378 131.845C405.459 131.845 421.738 115.323 421.738 94.942C421.738 74.561 405.459 58.039 385.378 58.039C365.297 58.039 349.018 74.561 349.018 94.942C349.018 115.323 365.297 131.845 385.378 131.845Z" fill="#E1E1E6" stroke="#E1E1E6"/>
</svg>
