<?xml version="1.0" encoding="utf-8"?>
<svg viewBox="14.441 36.903 456.679 418.172" xmlns="http://www.w3.org/2000/svg" xmlns:bx="https://boxy-svg.com">
  <path fill="#000000" opacity="1.000000" stroke="none" d="M 255.733 382.707 C 269.383 400.859 273.101 420.898 269.281 443.095 C 267.694 442.154 267.946 441.07 267.916 440.168 C 266.741 406.372 249.507 384.43 220.637 371.307 C 203.694 363.605 185.825 360.213 167.661 358.183 C 149.268 356.126 130.883 356.257 112.54 356.965 C 89.855 357.841 67.332 360.548 44.915 363.96 C 38.125 364.993 31.329 366.002 24.566 367.181 C 22.002 367.629 20.861 366.797 20.968 364.07 C 21.535 349.621 20.538 335.133 20.893 320.684 C 21.268 305.462 20.47 290.23 20.438 275.006 C 20.38 246.461 20.193 217.913 20.013 189.366 C 19.976 183.189 19.753 177.007 19.597 170.084 C 35.303 172.937 49.461 177.797 63.496 181.905 C 64.992 180.639 64.584 179.273 64.576 178.068 C 64.489 162.715 64.38 147.363 64.254 132.01 C 64.212 127.012 64.283 126.924 68.832 128.085 C 80.994 131.187 93.141 134.334 105.064 138.43 C 105.965 138.741 106.917 138.873 107.775 139.073 C 109.245 137.764 108.691 136.12 108.679 134.688 C 108.459 110.832 108.197 86.976 107.939 63.119 C 107.882 57.839 107.977 57.771 113.052 58.983 C 153.975 68.751 193.05 83.839 229.469 106.379 C 262.295 126.693 290.989 151.915 312.466 185.412 C 327.429 208.749 336.876 234.205 340.745 261.906 C 344.036 285.481 342.776 308.687 338.553 331.767 C 338.424 332.472 338.541 333.337 337.353 333.706 C 336.419 331.399 337.234 329.083 337.39 326.899 C 340.396 284.717 332.92 244.735 311.825 207.744 C 295.726 179.515 273.796 157.022 248.07 138.459 C 213.607 113.591 175.644 97.236 135.73 85.671 C 135.496 85.602 135.252 85.576 135.016 85.508 C 126.048 82.966 126.088 82.966 126.205 92.48 C 126.548 120.144 127.138 147.816 127.082 175.472 C 127.04 196.413 127.88 217.353 127.877 238.285 C 127.877 241.86 128.734 243.321 132.491 243.768 C 162.089 247.293 191.237 253.175 218.905 265.837 C 240.145 275.556 259.094 288.641 272.894 308.784 C 286.2 328.204 291.672 349.813 290.233 373.321 C 289.882 379.021 289.191 384.634 288.096 390.191 C 287.719 392.101 287.456 394.105 285.557 395.67 C 285.648 391.648 285.737 387.623 285.835 383.601 C 286.594 352.228 276.835 325.407 253.09 304.789 C 235.351 289.384 214.494 280.887 192.768 274.576 C 169.625 267.85 146.016 264.124 122.255 261.52 C 119.606 261.229 116.959 260.779 114.307 260.657 C 111.153 260.513 109.93 259.17 109.912 255.7 C 109.8 233.368 109.482 211.032 109.274 188.699 C 109.198 180.58 109.128 172.458 109.29 164.348 C 109.354 161.21 108.156 159.74 105.381 158.943 C 97.919 156.796 90.497 154.487 81.928 151.902 C 82.089 159.096 82.273 165.403 82.361 171.709 C 82.884 209.02 83.383 246.331 83.894 283.641 C 83.974 289.328 83.989 289.33 89.311 289.529 C 115.675 290.52 141.995 292.439 168.005 297.835 C 193.863 303.197 219.056 310.849 241.444 326.634 C 257.873 338.216 270.275 353.115 276.491 373.082 C 280.89 387.208 281.369 401.528 279.357 415.967 C 279.273 416.577 279.148 417.236 278.291 417.283 C 277.213 416.652 277.59 415.529 277.571 414.609 C 276.827 378.415 259.595 353.065 229.569 336.195 C 210.823 325.664 190.63 320.146 169.962 316.446 C 138.219 310.764 106.307 310.371 74.374 310.967 C 72.68 310.998 70.98 310.945 69.294 311.054 C 67.016 311.201 65.991 310.274 65.965 307.764 C 65.801 291.903 65.292 276.042 65.438 260.178 C 65.568 245.976 65.1 231.751 64.944 217.537 C 64.904 213.861 64.994 210.183 65.121 206.512 C 65.203 204.158 64.445 202.755 62.09 202.084 C 55.286 200.145 48.504 198.104 41.763 195.919 C 38.897 194.991 37.937 196.078 37.983 198.884 C 38.005 200.28 37.997 201.676 38.01 203.072 C 38.204 226.801 38.44 250.53 38.586 274.257 C 38.717 295.823 38.742 317.387 38.85 338.952 C 38.856 340.434 38.561 341.99 39.55 343.784 C 45.98 343.059 52.53 342.333 59.076 341.581 C 86.81 338.396 114.632 337.075 142.639 338.653 C 161.91 339.739 180.963 342.378 199.636 347.908 C 217.018 353.056 233.343 360.575 247.201 373.324 C 250.253 376.131 252.937 379.277 255.733 382.707 Z" style="" transform="matrix(0.999857, 0.016922, -0.016922, 0.999857, 4.079508, -4.53368)" bx:origin="0.775 0.469"/>
  <path fill="#000000" opacity="1.000000" stroke="none" d="M 246.631 96.813 C 276.149 106.495 302.509 122.234 327.947 140.003 C 342.295 150.024 355.843 161.298 370.725 170.474 C 377.373 174.573 384.159 178.429 391.621 180.526 C 408.898 185.385 423.618 180.386 436.217 168.156 C 448.605 156.133 455.159 140.665 458.823 123.581 C 459.08 122.382 458.967 121.044 460.169 119.957 C 461.273 121.499 461.357 123.215 461.513 124.919 C 463.065 141.941 462.294 158.839 460.647 175.742 C 457.033 212.841 447.56 248.066 432.321 281.431 C 414.097 321.338 388.583 355.285 356.495 383.819 C 334.201 403.644 309.625 419.781 283.316 433.167 C 282.501 433.581 281.754 434.416 280.483 433.777 C 280.497 432.157 281.878 431.691 282.806 430.918 C 305.809 411.737 324.297 388.687 336.74 360.551 C 345.192 341.442 349.866 321.253 351.162 300.02 C 353.798 256.928 341.45 217.964 319.304 181.783 C 296.931 145.221 266.865 117.023 231.626 94.644 C 230.648 94.023 229.261 93.823 228.839 91.74 C 234.951 92.993 240.644 94.896 246.631 96.813 M 359.181 289.107 C 359.439 292.27 359.813 295.431 359.932 298.595 C 360.152 304.427 361.022 309.904 365.188 314.456 C 366.934 316.365 358.912 346.288 359.721 348.874 C 360.417 351.099 336.134 166.806 338.307 166.449 C 344.933 165.363 444.146 199.088 447.768 192.372 C 449.341 189.453 437.795 243.436 440.272 241.46 C 442.686 239.537 422.659 279.41 424.311 276.69 C 427.193 271.951 408.304 291.927 411.377 287.337 C 416.694 279.388 421.551 271.027 424.01 261.354 C 425.891 253.95 427.063 246.341 429.884 239.192 C 432.331 232.989 433.473 226.204 433.374 219.535 C 433.17 206 430.849 201.348 417.738 201.355 C 413.228 201.358 408.875 200.755 404.451 199.682 C 397.25 197.935 390.017 196.497 382.599 195.766 C 374.903 195.006 367.441 196.43 359.842 196.166 C 353.272 195.94 351.556 197.987 351.419 204.932 C 351.334 209.175 350.834 213.198 348.373 216.761 C 346.782 219.067 346.434 221.837 346.985 224.748 C 347.626 228.124 348.497 231.437 349.292 234.775 C 351.215 242.862 354.623 250.728 353.337 259.358 C 353 261.613 353.658 263.891 354.414 266.083 C 356.913 273.329 358.624 280.742 359.181 289.107 Z" style="" transform="matrix(0.999857, 0.016922, -0.016922, 0.999857, 4.103656, -4.399169)" bx:origin="0.142 0.434"/>
  <path fill="#000000" opacity="1.000000" stroke="none" d="M 165.173 178.337 C 167.625 179.906 170.041 180.405 172.674 180.327 C 175.576 180.242 177.545 178.967 178.319 176.538 C 179.12 174.025 178.579 171.547 175.982 169.993 C 173.731 168.644 171.249 167.617 168.846 166.491 C 165.429 164.891 161.892 163.483 158.579 161.718 C 150.064 157.177 146.168 150.299 147.217 141.518 C 148.264 132.778 153.681 127.053 162.809 124.306 C 169.676 122.236 169.842 122.238 169.994 115.34 C 170.064 112.214 171.328 111.344 174.593 111.646 C 183.805 112.497 183.968 112.439 183.05 120.751 C 182.747 123.494 183.803 124.677 186.349 125.754 C 193.211 128.659 196.676 134.038 198.767 140.383 C 199.455 142.471 198.849 143.579 196.563 144.003 C 193.126 144.635 189.692 145.291 186.268 145.977 C 184.097 146.412 183.23 145.389 182.657 143.639 C 181.578 140.348 179.437 137.748 175.665 136.847 C 172.815 136.168 169.811 136.155 168.425 139.117 C 167.16 141.823 167.637 144.454 170.306 146.473 C 172.408 148.063 174.863 149.121 177.325 150.16 C 180.684 151.575 184.004 153.071 187.341 154.535 C 195.532 158.134 199.66 164.33 199.655 172.273 C 199.65 180.88 195.568 188.294 186.62 191.181 C 179.724 193.407 176.517 196.496 177.082 203.022 C 177.114 203.397 177.135 203.917 176.899 204.142 C 173.741 207.143 170.031 204.137 166.598 204.636 C 164.676 204.916 163.499 203.474 163.972 201.921 C 166.174 194.698 161.624 192.355 155.127 190.025 C 147.396 187.254 144.455 180.671 143.044 173.613 C 142.635 171.555 143.5 170.436 145.871 170.299 C 149.522 170.085 153.17 169.808 156.81 169.491 C 159.142 169.29 160.581 169.984 161.032 172.262 C 161.505 174.627 162.852 176.607 165.173 178.337 Z" style="" transform="matrix(0.999857, 0.016922, -0.016922, 0.999857, 4.121359, -4.894835)" bx:origin="2.616 1.379"/>
  <ellipse style="stroke: rgb(0, 0, 0);" cx="399.819" cy="131.845" rx="36.36" ry="36.903"/>
</svg>